<svg height="480pt" viewBox="0 0 480 480" width="480pt" xmlns="http://www.w3.org/2000/svg" xmlns:xlink="http://www.w3.org/1999/xlink"><linearGradient id="a"><stop offset="0" stop-color="#e93e3a"/><stop offset=".35" stop-color="#ed683c"/><stop offset=".7" stop-color="#f3903f"/><stop offset="1" stop-color="#fdc70c"/></linearGradient><linearGradient id="b" gradientUnits="userSpaceOnUse" x1="416" x2="416" xlink:href="#a" y1="493.808" y2="-17.448"/><linearGradient id="c" gradientUnits="userSpaceOnUse" x1="432" x2="432" xlink:href="#a" y1="493.808" y2="-17.448"/><linearGradient id="d" gradientUnits="userSpaceOnUse" x1="400" x2="400" xlink:href="#a" y1="493.808" y2="-17.448"/><linearGradient id="e" gradientUnits="userSpaceOnUse" x1="64" x2="64" xlink:href="#a" y1="493.808" y2="-17.448"/><linearGradient id="f" gradientUnits="userSpaceOnUse" x1="80" x2="80" xlink:href="#a" y1="493.808" y2="-17.448"/><linearGradient id="g" gradientUnits="userSpaceOnUse" x1="48" x2="48" xlink:href="#a" y1="493.808" y2="-17.448"/><linearGradient id="h" gradientUnits="userSpaceOnUse" x1="372" x2="372" xlink:href="#a" y1="493.808" y2="-17.448"/><linearGradient id="i" gradientUnits="userSpaceOnUse" x1="384" x2="384" xlink:href="#a" y1="493.808" y2="-17.448"/><linearGradient id="j" gradientUnits="userSpaceOnUse" x1="108" x2="108" xlink:href="#a" y1="493.808" y2="-17.448"/><linearGradient id="k" gradientUnits="userSpaceOnUse" x1="96" x2="96" xlink:href="#a" y1="493.808" y2="-17.448"/><linearGradient id="l" gradientUnits="userSpaceOnUse" x1="240" x2="240" xlink:href="#a" y1="493.808" y2="-17.448"/><linearGradient id="m" gradientUnits="userSpaceOnUse" x1="296" x2="296" xlink:href="#a" y1="493.808" y2="-17.448"/><linearGradient id="n" gradientUnits="userSpaceOnUse" x1="184" x2="184" xlink:href="#a" y1="493.808" y2="-17.448"/><path d="m456 0h-80c-13.253906 0-24 10.746094-24 24v80c0 13.253906 10.746094 24 24 24h80c13.253906 0 24-10.746094 24-24v-80c0-13.253906-10.746094-24-24-24zm-80 16h80c4.417969 0 8 3.582031 8 8v8h-96v-8c0-4.417969 3.582031-8 8-8zm80 96h-80c-4.417969 0-8-3.582031-8-8v-56h96v56c0 4.417969-3.582031 8-8 8zm0 0" fill="url(#b)"/><path d="m424 72h16v16h-16zm0 0" fill="url(#c)"/><path d="m392 72h16v16h-16zm0 0" fill="url(#d)"/><path d="m24 128h80c13.253906 0 24-10.746094 24-24v-80c0-13.253906-10.746094-24-24-24h-80c-13.253906 0-24 10.746094-24 24v80c0 13.253906 10.746094 24 24 24zm80-16h-80c-4.417969 0-8-3.582031-8-8v-56h96v56c0 4.417969-3.582031 8-8 8zm-80-96h80c4.417969 0 8 3.582031 8 8v8h-96v-8c0-4.417969 3.582031-8 8-8zm0 0" fill="url(#e)"/><path d="m72 72h16v16h-16zm0 0" fill="url(#f)"/><path d="m40 72h16v16h-16zm0 0" fill="url(#g)"/><path d="m456 352h-80c-13.253906 0-24 10.746094-24 24v80c0 13.253906 10.746094 24 24 24h80c13.253906 0 24-10.746094 24-24v-80c0-13.253906-10.746094-24-24-24zm-80 16h80c4.417969 0 8 3.582031 8 8v8h-96v-8c0-4.417969 3.582031-8 8-8zm80 96h-80c-4.417969 0-8-3.582031-8-8v-56h96v56c0 4.417969-3.582031 8-8 8zm0 0" fill="url(#b)"/><path d="m424 424h16v16h-16zm0 0" fill="url(#c)"/><path d="m392 424h16v16h-16zm0 0" fill="url(#d)"/><path d="m104 352h-80c-13.253906 0-24 10.746094-24 24v80c0 13.253906 10.746094 24 24 24h80c13.253906 0 24-10.746094 24-24v-80c0-13.253906-10.746094-24-24-24zm-80 16h80c4.417969 0 8 3.582031 8 8v8h-96v-8c0-4.417969 3.582031-8 8-8zm80 96h-80c-4.417969 0-8-3.582031-8-8v-56h96v56c0 4.417969-3.582031 8-8 8zm0 0" fill="url(#e)"/><path d="m72 424h16v16h-16zm0 0" fill="url(#f)"/><path d="m40 424h16v16h-16zm0 0" fill="url(#g)"/><path d="m389.65625 213.65625 32-32c1.5-1.5 2.34375-3.535156 2.34375-5.65625v-32h-16v28.6875l-27.3125 27.3125h-60.6875v16h64c2.121094 0 4.15625-.84375 5.65625-2.34375zm0 0" fill="url(#h)"/><path d="m408 307.3125v28.6875h16v-32c0-2.121094-.84375-4.15625-2.34375-5.65625l-32-32c-1.5-1.5-3.535156-2.34375-5.65625-2.34375h-40v16h36.6875zm0 0" fill="url(#i)"/><path d="m56 144v32c0 2.121094.84375 4.15625 2.34375 5.65625l32 32c1.5 1.5 3.535156 2.34375 5.65625 2.34375h64v-16h-60.6875l-27.3125-27.3125v-28.6875zm0 0" fill="url(#j)"/><path d="m90.34375 266.34375-32 32c-1.5 1.5-2.34375 3.535156-2.34375 5.65625v32h16v-28.6875l27.3125-27.3125h36.6875v-16h-40c-2.121094 0-4.15625.84375-5.65625 2.34375zm0 0" fill="url(#k)"/><path d="m307.382812 231.585938c-3.144531-8.296876-10.589843-14.191407-19.382812-15.347657v-46.757812c.03125-8.007813-2.371094-15.835938-6.886719-22.449219-23.96875-35.03125-36.875-35.03125-41.113281-35.03125s-17.144531 0-41.105469 35.023438c-4.523437 6.613281-6.925781 14.445312-6.894531 22.457031v46.757812c-8.789062 1.15625-16.238281 7.046875-19.382812 15.335938l-16.058594 42.824219c-1.832032 4.914062-1.144532 10.414062 1.84375 14.722656 2.988281 4.308594 7.898437 6.878906 13.140625 6.878906h28.457031c3.03125 0 5.804688-1.710938 7.160156-4.425781l4.160156-8.328125 5.09375 15.28125c-5.394531 5.851562-8.398437 13.511718-8.414062 21.472656 0 16.480469 12.464844 48 32 48s32-31.519531 32-48c-.019531-7.953125-3.027344-15.613281-8.425781-21.457031l5.097656-15.277344 4.160156 8.328125c1.359375 2.707031 4.136719 4.414062 7.167969 4.40625h28.457031c5.242188 0 10.152344-2.570312 13.140625-6.878906 2.988282-4.308594 3.675782-9.808594 1.84375-14.722656zm-77.613281 56.414062-2.671875-8h25.804688l-2.671875 8zm-21.769531-118.519531c-.027344-4.785157 1.402344-9.464844 4.097656-13.417969 15.183594-22.199219 24.894532-28.0625 27.902344-28.0625s12.71875 5.863281 27.910156 28.070312c2.691406 3.953126 4.117188 8.628907 4.089844 13.410157v94.519531h-24v-48h-16v48h-24zm-36.457031 110.519531 16.058593-42.816406c.789063-2.03125 2.382813-3.648438 4.398438-4.472656v39.289062c.03125 2.703125 1.449219 5.195312 3.753906 6.609375l-.699218 1.390625zm68.457031 72c-5.984375 0-16-20.039062-16-32 0-8.835938 7.164062-16 16-16s16 7.164062 16 16c0 12-10.015625 32-16 32zm44.945312-72-.699218-1.390625c2.304687-1.414063 3.722656-3.90625 3.753906-6.609375v-39.289062c2.019531.828124 3.609375 2.445312 4.398438 4.480468l16.058593 42.808594zm0 0" fill="url(#l)"/><path d="m240 192c13.253906 0 24-10.746094 24-24s-10.746094-24-24-24-24 10.746094-24 24 10.746094 24 24 24zm0-32c4.417969 0 8 3.582031 8 8s-3.582031 8-8 8-8-3.582031-8-8 3.582031-8 8-8zm0 0" fill="url(#l)"/><path d="m288 312h16v32h-16zm0 0" fill="url(#m)"/><path d="m176 312h16v32h-16zm0 0" fill="url(#n)"/></svg>