<?xml version="1.0"?>
<svg xmlns="http://www.w3.org/2000/svg" xmlns:xlink="http://www.w3.org/1999/xlink" xmlns:svgjs="http://svgjs.com/svgjs" version="1.1" width="512" height="512" x="0" y="0" viewBox="0 0 64 64" style="enable-background:new 0 0 512 512" xml:space="preserve" class=""><g><linearGradient xmlns="http://www.w3.org/2000/svg" id="New_Gradient_Swatch_1" gradientUnits="userSpaceOnUse" x1="32" x2="32" y1="2" y2="66.995"><stop stop-opacity="1" stop-color="#d40000" offset="0"/><stop stop-opacity="0.86" stop-color="#d40000" offset="0.014"/><stop stop-opacity="1" stop-color="#d40000" offset="0.042"/><stop stop-opacity="1" stop-color="#d40000" offset="0.07"/><stop stop-opacity="1" stop-color="#d40000" offset="0.1"/><stop stop-opacity="1" stop-color="#d40000" offset="0.5019305019305019"/><stop stop-opacity="1" stop-color="#800000" offset="0.555984555984556"/><stop stop-opacity="1" stop-color="#800000" offset="1"/></linearGradient><linearGradient xmlns="http://www.w3.org/2000/svg" xmlns:xlink="http://www.w3.org/1999/xlink" id="New_Gradient_Swatch_1-2" x1="32" x2="32" xlink:href="#New_Gradient_Swatch_1" y1="2.008" y2="67.003"/><linearGradient xmlns="http://www.w3.org/2000/svg" xmlns:xlink="http://www.w3.org/1999/xlink" id="New_Gradient_Swatch_1-3" x1="24.854" x2="24.854" xlink:href="#New_Gradient_Swatch_1" y1="2.008" y2="67.003"/><linearGradient xmlns="http://www.w3.org/2000/svg" xmlns:xlink="http://www.w3.org/1999/xlink" id="New_Gradient_Swatch_1-4" x1="39.146" x2="39.146" xlink:href="#New_Gradient_Swatch_1" y1="2.008" y2="67.003"/><linearGradient xmlns="http://www.w3.org/2000/svg" xmlns:xlink="http://www.w3.org/1999/xlink" id="New_Gradient_Swatch_1-5" gradientTransform="matrix(.242 .97 -.97 .242 44.625 -15.133)" x1="32" x2="32" xlink:href="#New_Gradient_Swatch_1" y1="2.008" y2="67.003"/><linearGradient xmlns="http://www.w3.org/2000/svg" xmlns:xlink="http://www.w3.org/1999/xlink" id="New_Gradient_Swatch_1-6" x1="7" x2="7" xlink:href="#New_Gradient_Swatch_1" y1="2.008" y2="67.003"/><linearGradient xmlns="http://www.w3.org/2000/svg" xmlns:xlink="http://www.w3.org/1999/xlink" id="New_Gradient_Swatch_1-7" x1="12" x2="12" xlink:href="#New_Gradient_Swatch_1" y1="2.008" y2="67.003"/><linearGradient xmlns="http://www.w3.org/2000/svg" xmlns:xlink="http://www.w3.org/1999/xlink" id="New_Gradient_Swatch_1-8" x1="8" x2="8" xlink:href="#New_Gradient_Swatch_1" y1="2.008" y2="67.003"/><linearGradient xmlns="http://www.w3.org/2000/svg" xmlns:xlink="http://www.w3.org/1999/xlink" id="New_Gradient_Swatch_1-9" x1="13" x2="13" xlink:href="#New_Gradient_Swatch_1" y1="2.008" y2="67.003"/><linearGradient xmlns="http://www.w3.org/2000/svg" xmlns:xlink="http://www.w3.org/1999/xlink" id="New_Gradient_Swatch_1-20" x1="57" x2="57" xlink:href="#New_Gradient_Swatch_1" y1="2.008" y2="67.003"/><linearGradient xmlns="http://www.w3.org/2000/svg" xmlns:xlink="http://www.w3.org/1999/xlink" id="New_Gradient_Swatch_1-21" x1="52" x2="52" xlink:href="#New_Gradient_Swatch_1" y1="2.008" y2="67.003"/><linearGradient xmlns="http://www.w3.org/2000/svg" xmlns:xlink="http://www.w3.org/1999/xlink" id="New_Gradient_Swatch_1-22" x1="56" x2="56" xlink:href="#New_Gradient_Swatch_1" y1="2.008" y2="67.003"/><linearGradient xmlns="http://www.w3.org/2000/svg" xmlns:xlink="http://www.w3.org/1999/xlink" id="New_Gradient_Swatch_1-23" x1="51" x2="51" xlink:href="#New_Gradient_Swatch_1" y1="2.008" y2="67.003"/><g xmlns="http://www.w3.org/2000/svg" id="Programming-2" data-name="Programming"><path d="m57 2h-50a5.006 5.006 0 0 0 -5 5v36a5.006 5.006 0 0 0 5 5h19v8h-6a3 3 0 0 0 0 6h24a3 3 0 0 0 0-6h-6v-8h19a5.006 5.006 0 0 0 5-5v-36a5.006 5.006 0 0 0 -5-5zm-50 2h50a3 3 0 0 1 3 3v31h-56v-31a3 3 0 0 1 3-3zm38 55a1 1 0 0 1 -1 1h-24a1 1 0 0 1 0-2h24a1 1 0 0 1 1 1zm-9-3h-8v-8h8zm21-10h-50a3 3 0 0 1 -3-3v-3h56v3a3 3 0 0 1 -3 3z" fill="url(#New_Gradient_Swatch_1)" data-original="url(#New_Gradient_Swatch_1)" style=""/><path d="m32 36a15 15 0 1 0 -15-15 15.017 15.017 0 0 0 15 15zm0-28a13 13 0 1 1 -13 13 13.015 13.015 0 0 1 13-13z" fill="url(#New_Gradient_Swatch_1-2)" data-original="url(#New_Gradient_Swatch_1-2)" style=""/><path d="m28.707 26.293-5.293-5.293 5.293-5.293-1.414-1.414-6 6a1 1 0 0 0 0 1.414l6 6z" fill="url(#New_Gradient_Swatch_1-3)" data-original="url(#New_Gradient_Swatch_1-3)" style=""/><path d="m36.707 27.707 6-6a1 1 0 0 0 0-1.414l-6-6-1.414 1.414 5.293 5.293-5.293 5.293z" fill="url(#New_Gradient_Swatch_1-4)" data-original="url(#New_Gradient_Swatch_1-4)" style=""/><path d="m23.754 20h16.492v2h-16.492z" fill="url(#New_Gradient_Swatch_1-5)" transform="matrix(.242 -.97 .97 .242 3.875 46.961)" data-original="url(#New_Gradient_Swatch_1-5)" style=""/><path d="m6 8h2v2h-2z" fill="url(#New_Gradient_Swatch_1-6)" data-original="url(#New_Gradient_Swatch_1-6)" style=""/><path d="m10 8h4v2h-4z" fill="url(#New_Gradient_Swatch_1-7)" data-original="url(#New_Gradient_Swatch_1-7)" style=""/><path d="m6 12h4v2h-4z" fill="url(#New_Gradient_Swatch_1-8)" data-original="url(#New_Gradient_Swatch_1-8)" style=""/><path d="m12 12h2v2h-2z" fill="url(#New_Gradient_Swatch_1-9)" data-original="url(#New_Gradient_Swatch_1-9)" style=""/><path d="m6 16h2v2h-2z" fill="url(#New_Gradient_Swatch_1-6)" data-original="url(#New_Gradient_Swatch_1-6)" style=""/><path d="m10 16h4v2h-4z" fill="url(#New_Gradient_Swatch_1-7)" data-original="url(#New_Gradient_Swatch_1-7)" style=""/><path d="m6 20h4v2h-4z" fill="url(#New_Gradient_Swatch_1-8)" data-original="url(#New_Gradient_Swatch_1-8)" style=""/><path d="m12 20h2v2h-2z" fill="url(#New_Gradient_Swatch_1-9)" data-original="url(#New_Gradient_Swatch_1-9)" style=""/><path d="m6 24h2v2h-2z" fill="url(#New_Gradient_Swatch_1-6)" data-original="url(#New_Gradient_Swatch_1-6)" style=""/><path d="m10 24h4v2h-4z" fill="url(#New_Gradient_Swatch_1-7)" data-original="url(#New_Gradient_Swatch_1-7)" style=""/><path d="m6 28h4v2h-4z" fill="url(#New_Gradient_Swatch_1-8)" data-original="url(#New_Gradient_Swatch_1-8)" style=""/><path d="m12 28h2v2h-2z" fill="url(#New_Gradient_Swatch_1-9)" data-original="url(#New_Gradient_Swatch_1-9)" style=""/><path d="m6 32h2v2h-2z" fill="url(#New_Gradient_Swatch_1-6)" data-original="url(#New_Gradient_Swatch_1-6)" style=""/><path d="m10 32h4v2h-4z" fill="url(#New_Gradient_Swatch_1-7)" data-original="url(#New_Gradient_Swatch_1-7)" style=""/><path d="m56 8h2v2h-2z" fill="url(#New_Gradient_Swatch_1-20)" data-original="url(#New_Gradient_Swatch_1-20)" style=""/><path d="m50 8h4v2h-4z" fill="url(#New_Gradient_Swatch_1-21)" data-original="url(#New_Gradient_Swatch_1-21)" style=""/><path d="m54 12h4v2h-4z" fill="url(#New_Gradient_Swatch_1-22)" data-original="url(#New_Gradient_Swatch_1-22)" style=""/><path d="m50 12h2v2h-2z" fill="url(#New_Gradient_Swatch_1-23)" data-original="url(#New_Gradient_Swatch_1-23)" style=""/><path d="m56 16h2v2h-2z" fill="url(#New_Gradient_Swatch_1-20)" data-original="url(#New_Gradient_Swatch_1-20)" style=""/><path d="m50 16h4v2h-4z" fill="url(#New_Gradient_Swatch_1-21)" data-original="url(#New_Gradient_Swatch_1-21)" style=""/><path d="m54 20h4v2h-4z" fill="url(#New_Gradient_Swatch_1-22)" data-original="url(#New_Gradient_Swatch_1-22)" style=""/><path d="m50 20h2v2h-2z" fill="url(#New_Gradient_Swatch_1-23)" data-original="url(#New_Gradient_Swatch_1-23)" style=""/><path d="m56 24h2v2h-2z" fill="url(#New_Gradient_Swatch_1-20)" data-original="url(#New_Gradient_Swatch_1-20)" style=""/><path d="m50 24h4v2h-4z" fill="url(#New_Gradient_Swatch_1-21)" data-original="url(#New_Gradient_Swatch_1-21)" style=""/><path d="m54 28h4v2h-4z" fill="url(#New_Gradient_Swatch_1-22)" data-original="url(#New_Gradient_Swatch_1-22)" style=""/><path d="m50 28h2v2h-2z" fill="url(#New_Gradient_Swatch_1-23)" data-original="url(#New_Gradient_Swatch_1-23)" style=""/><path d="m56 32h2v2h-2z" fill="url(#New_Gradient_Swatch_1-20)" data-original="url(#New_Gradient_Swatch_1-20)" style=""/><path d="m50 32h4v2h-4z" fill="url(#New_Gradient_Swatch_1-21)" data-original="url(#New_Gradient_Swatch_1-21)" style=""/></g></g></svg>
